
        <svg xmlns="http://www.w3.org/2000/svg" xmlns:xlink="http://www.w3.org/1999/xlink" version="1.1" width="3171.4285714285716" 
        height="2653.4977782211377" viewBox="0 0 3171.4285714285716 2653.4977782211377">
			
			<g transform="scale(8.571428571428571) translate(10, 10)">
				<defs id="SvgjsDefs2018"></defs><g id="SvgjsG2019" featureKey="symbolGroupContainer" transform="matrix(1,0,0,1,43,0)" fill="#c5a059"><path xmlns="http://www.w3.org/2000/svg" fill-rule="evenodd" d=" M0,0 H264 V223 H0,0 z M2,2 H262 V221 H2,2 z M6,6 H258 V217 H6 z M8,8 H256 V215 H6,8 z "></path></g><g id="SvgjsG2020" featureKey="DUScZC-0" transform="matrix(1.5692934782608694,0,0,1.5692934782608694,99.86141304347827,36.059782608695656)" fill="#c5a059"><path xmlns="http://www.w3.org/2000/svg" d="M92 58h-88c-1.104 0-2-0.9-2-2s0.896-2 2-2h88c1.1 0 2 0.9 2 2s-0.9 2-2 2z" fill="#c5a059"></path><path xmlns="http://www.w3.org/2000/svg" d="M18 68c-1.104 0-2-0.9-2-2v-36c0-1.104 0.896-2 2-2s2 0.896 2 2v36c0 1.1-0.896 2-2 2z" fill="#c5a059"></path><path xmlns="http://www.w3.org/2000/svg" d="M78 68c-1.1 0-2-0.9-2-2v-36c0-1.104 0.9-2 2-2s2 0.896 2 2v36c0 1.1-0.9 2-2 2z" fill="#c5a059"></path><path xmlns="http://www.w3.org/2000/svg" d="M48 52.332c-18.244 0-32-9.6-32-22.332 0-1.104 0.896-2 2-2s2 0.896 2 2c0 10.452 12.036 18.332 28 18.332s28-7.88 28-18.332c0-1.104 0.9-2 2-2s2 0.896 2 2c0 12.736-13.756 22.332-32 22.332z" fill="#c5a059"></path><path xmlns="http://www.w3.org/2000/svg" d="M4.004 49.408c-0.788 0-1.532-0.468-1.848-1.24-0.42-1.020 0.068-2.188 1.088-2.608 7.988-3.284 12.756-9.096 12.756-15.556 0-1.104 0.896-2 2-2s2 0.896 2 2c0 8.14-5.696 15.336-15.236 19.256-0.248 0.1-0.508 0.148-0.76 0.148z" fill="#c5a059"></path><path xmlns="http://www.w3.org/2000/svg" d="M91.996 49.408c-0.252 0-0.512-0.044-0.76-0.152-9.54-3.92-15.236-11.116-15.236-19.256 0-1.104 0.9-2 2-2s2 0.896 2 2c0 6.46 4.764 12.272 12.756 15.556 1.016 0.42 1.508 1.588 1.084 2.608-0.312 0.776-1.060 1.244-1.844 1.244z" fill="#c5a059"></path></g><g id="SvgjsG2021" featureKey="MdC7pD-0" transform="matrix(1.7013001028378119,0,0,1.7013001028378119,-2.994286136661921,233.67687621524217)" fill="#c5a059"><path d="M6.08 5.84 q2.24 0 3.46 0.91 t1.24 2.57 q0 1.22 -0.67 2.04 t-1.81 1.16 l0 0.04 q1.38 0.12 2.29 1.11 t0.91 2.37 q0 1.88 -1.42 2.91 t-4.04 1.05 l-4.28 0 l0 -14.16 l4.32 0 z M5.84 11.84 q1.54 0 2.34 -0.55 t0.8 -1.75 q0 -2.1 -2.96 -2.14 l-2.58 0 l0 4.44 l2.4 0 z M6.36 18.44 q1.52 0 2.43 -0.67 t0.91 -1.79 q0 -1.28 -0.9 -1.93 t-2.46 -0.65 l-2.9 0 l0 5.04 l2.92 0 z M21.447 5.84 l6.02 14.16 l-1.96 0 l-1.44 -3.48 l-7.08 0 l-1.46 3.48 l-1.9 0 l6.24 -14.16 l1.58 0 z M20.587 8 l-2.94 6.96 l5.78 0 l-2.8 -6.96 l-0.04 0 z M31.934 5.84 l0 12.6 l6.48 0 l0 1.56 l-8.16 0 l0 -14.16 l1.68 0 z M42.841 5.84 l0 12.6 l6.48 0 l0 1.56 l-8.16 0 l0 -14.16 l1.68 0 z M58.248 5.84 l6.02 14.16 l-1.96 0 l-1.44 -3.48 l-7.08 0 l-1.46 3.48 l-1.9 0 l6.24 -14.16 l1.58 0 z M57.388 8 l-2.94 6.96 l5.78 0 l-2.8 -6.96 l-0.04 0 z M79.902 5.48 q1.66 0 2.94 0.59 t2.06 1.63 l-1.46 1.06 q-0.64 -0.86 -1.58 -1.29 t-1.96 -0.43 q-2.26 0 -3.81 1.72 t-1.59 4.16 q0 2.52 1.54 4.19 t3.86 1.69 q2.54 0 4.1 -1.98 l1.26 1.06 q-1.86 2.48 -5.36 2.48 q-3.1 0 -5.13 -2.14 t-2.07 -5.3 q0 -3.16 2.05 -5.28 t5.15 -2.16 z M95.089 5.48 q3.2 0 5.28 2.1 t2.12 5.34 q-0.02 3.3 -2.14 5.36 t-5.26 2.08 q-3.2 0 -5.28 -2.11 t-2.12 -5.33 q0 -3.2 2.08 -5.3 t5.32 -2.14 z M89.489 12.92 q0 2.54 1.6 4.19 t4 1.69 q2.4 0 3.98 -1.68 t1.62 -4.2 q0 -2.46 -1.56 -4.15 t-4.06 -1.73 q-2.44 0.02 -3.99 1.71 t-1.59 4.17 z M108.216 5.84 l8.2 11.76 l0.04 0 l0 -11.76 l1.68 0 l0 14.16 l-2.12 0 l-8.2 -11.76 l-0.04 0 l0 11.76 l-1.68 0 l0 -14.16 l2.12 0 z M126.703 5.48 q2.58 0 3.96 1.66 l-1.38 1.2 q-0.8 -1.26 -2.58 -1.3 q-1.34 0 -2.18 0.64 t-0.84 1.74 q0 0.96 0.64 1.52 t2.4 1.1 q2.28 0.66 3.23 1.61 t0.95 2.57 q0 1.88 -1.4 3 t-3.58 1.14 q-1.46 0 -2.6 -0.52 t-1.76 -1.44 l1.44 -1.18 q0.46 0.76 1.28 1.17 t1.74 0.41 q1.26 0 2.17 -0.71 t0.91 -1.75 q0 -0.94 -0.53 -1.48 t-1.75 -0.92 l-1.62 -0.54 q-1.82 -0.62 -2.57 -1.55 t-0.75 -2.29 q0 -1.8 1.34 -2.93 t3.48 -1.15 z M136.21 5.84 l0 8.52 q0 2.16 0.92 3.28 t2.74 1.16 q1.82 -0.02 2.73 -1.15 t0.93 -3.21 l0 -8.6 l1.68 0 l0 8.82 q0 2.7 -1.4 4.19 t-3.94 1.51 q-2.5 0 -3.91 -1.51 t-1.43 -4.21 l0 -8.8 l1.68 0 z M151.257 5.84 l0 12.6 l6.48 0 l0 1.56 l-8.16 0 l0 -14.16 l1.68 0 z M169.984 5.84 l0 1.56 l-4.68 0 l0 12.6 l-1.68 0 l0 -12.6 l-4.68 0 l0 -1.56 l11.04 0 z M174.551 5.84 l0 14.16 l-1.68 0 l0 -14.16 l1.68 0 z M181.098 5.84 l8.2 11.76 l0.04 0 l0 -11.76 l1.68 0 l0 14.16 l-2.12 0 l-8.2 -11.76 l-0.04 0 l0 11.76 l-1.68 0 l0 -14.16 l2.12 0 z M202.245 5.48 q3.14 0 5 1.86 l-1.26 1.32 q-0.74 -0.78 -1.75 -1.2 t-2.11 -0.42 q-2.44 0 -4.05 1.68 t-1.65 4.2 q0.02 2.62 1.66 4.23 t4.2 1.65 q1.84 0 3.52 -0.82 l0 -4.34 l-3.26 0 l0 -1.56 l4.94 0 l0 6.96 q-2.44 1.32 -5.3 1.32 q-3.34 0 -5.43 -2.09 t-2.13 -5.35 q0.02 -3.26 2.16 -5.32 t5.46 -2.12 z"></path></g><g id="SvgjsG2022" featureKey="Pp8M4q-0" transform="matrix(0.8267669741857377,0,0,0.8267669741857377,76.83464661501868,273.0393993375852)" fill="#c5a059"><path d="M2.58 20 l0 -2.24 l0.42 -0.28 l0 -2.68 l-2.22 -6.18 l-0.58 -0.38 l0 -2.24 l2.3 0 l1.76 4.86 l1.76 -4.86 l2.3 0 l0 2.24 l-0.58 0.38 l-2.22 6.14 l0 2.74 l0.42 0.26 l0 2.24 l-3.36 0 z M15.604 20 l-1.86 -1.86 l0 -10.28 l1.86 -1.86 l4.54 0 l1.86 1.86 l0 10.28 l-1.86 1.86 l-4.54 0 z M16.644 17.48 l2.46 0 l0.38 -0.38 l0 -8.2 l-0.38 -0.38 l-2.46 0 l-0.38 0.38 l0 8.2 z M30.108 20 l-1.86 -1.86 l0 -9.62 l-0.42 -0.28 l0 -2.24 l3.36 0 l0 2.24 l-0.42 0.28 l0 8.58 l0.38 0.38 l2.32 0 l0.38 -0.38 l0 -8.58 l-0.42 -0.28 l0 -2.24 l3.36 0 l0 2.24 l-0.42 0.28 l0 9.62 l-1.86 1.86 l-4.4 0 z M42.612 20 l0 -2.24 l0.42 -0.28 l0 -8.96 l-0.42 -0.28 l0 -2.24 l6.4 0 l1.86 1.86 l0 5.1 l-1.08 1.1 l0.86 3.34 l0.5 0.36 l0 2.24 l-3.44 0 l0 -2.24 l0.36 -0.24 l-0.7 -2.7 l-1.82 0 l0 2.66 l0.42 0.28 l0 2.24 l-3.36 0 z M45.552 12.3 l2.42 0 l0.38 -0.38 l0 -3.02 l-0.38 -0.38 l-2.42 0 l0 3.78 z M66.78 20 l-1.8 -11.52 l-0.36 -0.24 l0 -2.24 l2.52 0 l1.26 8.06 l1.26 -8.06 l2.38 0 l1.26 8.06 l1.26 -8.06 l2.52 0 l0 2.24 l-0.36 0.24 l-1.8 11.52 l-3.24 0 l-0.82 -5.3 l-0.84 5.3 l-3.24 0 z M82.104 20 l0 -2.24 l0.42 -0.28 l1.82 -8.96 l-0.42 -0.28 l0 -2.24 l5.32 0 l0 2.24 l-0.42 0.28 l1.82 8.96 l0.42 0.28 l0 2.24 l-2.48 0 l-0.62 -3.08 l-2.76 0 l-0.62 3.08 l-2.48 0 z M85.724 14.4 l1.72 0 l-0.86 -4.28 z M98.468 20 l0 -2.24 l0.42 -0.28 l0 -2.68 l-2.22 -6.18 l-0.58 -0.38 l0 -2.24 l2.3 0 l1.76 4.86 l1.76 -4.86 l2.3 0 l0 2.24 l-0.58 0.38 l-2.22 6.14 l0 2.74 l0.42 0.26 l0 2.24 l-3.36 0 z M120.376 20 l0 -2.24 l0.42 -0.28 l0 -8.96 l-0.42 0 l-0.28 0.42 l-2.24 0 l0 -2.94 l8.4 0 l0 2.94 l-2.24 0 l-0.28 -0.42 l-0.42 0 l0 8.96 l0.42 0.28 l0 2.24 l-3.36 0 z M133.94 20 l-1.86 -1.86 l0 -10.28 l1.86 -1.86 l4.54 0 l1.86 1.86 l0 10.28 l-1.86 1.86 l-4.54 0 z M134.98 17.48 l2.46 0 l0.38 -0.38 l0 -8.2 l-0.38 -0.38 l-2.46 0 l-0.38 0.38 l0 8.2 z M156.248 20 l-1.86 -1.86 l0 -10.28 l1.86 -1.86 l4.4 0 l1.86 1.86 l0 2.62 l-2.52 0 l0 -1.58 l-0.38 -0.38 l-2.32 0 l-0.38 0.38 l0 8.2 l0.38 0.38 l2.32 0 l0.38 -0.38 l0 -2.84 l-0.84 0 l-0.42 -0.28 l0 -2.24 l3.78 0 l0 6.4 l-1.86 1.86 l-4.4 0 z M168.332 20 l0 -2.24 l0.42 -0.28 l0 -8.96 l-0.42 -0.28 l0 -2.24 l6.4 0 l1.86 1.86 l0 5.1 l-1.08 1.1 l0.86 3.34 l0.5 0.36 l0 2.24 l-3.44 0 l0 -2.24 l0.36 -0.24 l-0.7 -2.7 l-1.82 0 l0 2.66 l0.42 0.28 l0 2.24 l-3.36 0 z M171.272 12.3 l2.42 0 l0.38 -0.38 l0 -3.02 l-0.38 -0.38 l-2.42 0 l0 3.78 z M184.376 20 l-1.86 -1.86 l0 -10.28 l1.86 -1.86 l4.54 0 l1.86 1.86 l0 10.28 l-1.86 1.86 l-4.54 0 z M185.416 17.48 l2.46 0 l0.38 -0.38 l0 -8.2 l-0.38 -0.38 l-2.46 0 l-0.38 0.38 l0 8.2 z M198.36 20 l-1.8 -11.52 l-0.36 -0.24 l0 -2.24 l2.52 0 l1.26 8.06 l1.26 -8.06 l2.38 0 l1.26 8.06 l1.26 -8.06 l2.52 0 l0 2.24 l-0.36 0.24 l-1.8 11.52 l-3.24 0 l-0.82 -5.3 l-0.84 5.3 l-3.24 0 z M216.604 20 l0 -2.24 l0.42 -0.28 l0 -8.96 l-0.42 0 l-0.28 0.42 l-2.24 0 l0 -2.94 l8.4 0 l0 2.94 l-2.24 0 l-0.28 -0.42 l-0.42 0 l0 8.96 l0.42 0.28 l0 2.24 l-3.36 0 z M228.308 20 l0 -2.24 l0.42 -0.28 l0 -8.96 l-0.42 -0.28 l0 -2.24 l3.36 0 l0 2.24 l-0.42 0.28 l0 3.22 l3.08 0 l0 -3.22 l-0.42 -0.28 l0 -2.24 l3.36 0 l0 2.24 l-0.42 0.28 l0 8.96 l0.42 0.28 l0 2.24 l-3.36 0 l0 -2.24 l0.42 -0.28 l0 -3.22 l-3.08 0 l0 3.22 l0.42 0.28 l0 2.24 l-3.36 0 z"></path></g>
			</g>
		</svg>
	